<svg id="Layer_1" xmlns="http://www.w3.org/2000/svg" viewBox="0 0 133 60"><style>.st0{fill:#fff}.st1{fill:#ce0e2d}</style><path id="XMLID_62_" class="st0" d="M6.173 31.069l.06-.417 1.524.036 1.393-.036.06.417-1.012.155v4.859c0 1.548-.631 2.584-3.001 3.132-2.346 0-3.179-1.262-3.179-3.156v-4.835l-1.072-.155.059-.417 1.643.036 1.631-.036.06.417-1.012.155v5.013c0 1.476.631 2.322 1.989 2.322 1.238 0 1.929-.834 1.929-2.358v-4.978l-1.072-.154z"/><path id="XMLID_60_" class="st0" d="M10.974 38.976l-1.369.036-.059-.417.834-.119V34.13l-.834.071-.06-.417 1.429-.369.512-.036.059 1 1.762-1.155c1.524 0 1.774.512 1.774 1.941v3.31l.905.119-.059.417-1.369-.036-1.143.036-.06-.417.595-.119V35.07c0-.619-.274-.893-.786-.893-.417 0-.834.262-1.239.536l-.357.238v3.525l.655.119-.06.417-1.13-.036z"/><path id="XMLID_57_" class="st0" d="M18.191 38.976l-1.369.036-.059-.417.834-.119V34.13l-.834.071-.06-.417 1.429-.369.595-.048v5.108l.893.119-.059.417-1.37-.035zm-.595-8.193l.857-.06.333.06.06.667-.131.572-.845.071-.321-.071-.071-.667.118-.572z"/><path id="XMLID_55_" class="st0" d="M23.154 38.238l1.441-4.311-.548-.119.06-.417 1.048.036.988-.036.059.417-.762.119-1.953 4.894-.869.357-2.072-5.251-.738-.119.06-.417 1.369.036 1.25-.036.059.417-.786.119 1.298 3.489.096.822z"/><path id="XMLID_52_" class="st0" d="M27.639 35.963c0 1.357.726 2.322 1.977 2.322.476 0 1.048-.226 1.488-.5l.191.453c-.572.393-1.322.726-2.084.941-1.441 0-2.739-1.024-2.739-2.894 0-1.762 1.06-2.703 2.691-3.06 1.572 0 2.108.988 2.108 2.239v.5h-3.632zm2.393-.595c0-.917-.178-1.548-1.095-1.548-.727 0-1.191.679-1.286 1.667l2.381-.119z"/><path id="XMLID_50_" class="st0" d="M33.989 34.951l1.358-1.667h.953v1.191h-.881c-.286.06-.81.453-1.131.846l-.238.286v2.834l1.25.119-.059.453-1.727-.036-1.334.036-.059-.417.834-.119v-4.346l-.834.071-.06-.417 1.429-.369.476-.036.023 1.571z"/><path id="XMLID_48_" class="st0" d="M40.137 34.07a1.854 1.854 0 0 0-.905-.262c-.464 0-.905.25-.905.702 0 .381.298.619.833.893l.917.464c.798.405 1.119.857 1.119 1.536 0 1.072-.869 1.477-2.239 1.774-.727 0-1.501-.357-1.81-.536l-.226-1.346h.762l.405.988c.25.167.595.298.976.298.631 0 .953-.405.953-.905 0-.465-.25-.667-.869-.988l-.941-.488c-.512-.262-1-.715-1-1.381 0-.834.774-1.298 2.155-1.596.643 0 1.334.286 1.679.536v1.191h-.631l-.273-.88z"/><path id="XMLID_45_" class="st0" d="M43.507 38.976l-1.369.036-.059-.417.834-.119V34.13l-.834.071-.059-.417 1.429-.369.595-.048v5.108l.893.119-.06.417-1.37-.035zm-.595-8.193l.857-.06.333.06.06.667-.131.572-.845.071-.321-.071-.071-.667.118-.572z"/><path id="XMLID_44_" class="st0" d="M45.123 34.082v-.202l.417-.417h.774v-.774l.774-.774h.31v1.631h1.798v.536H47.41v3.489c0 .345.131.714.631.714.346 0 .607-.119.941-.286l.202.405-1.393.774c-1.334 0-1.512-.476-1.512-1.548v-3.549h-1.156z"/><path id="XMLID_43_" class="st0" d="M50.749 41.798v-1.191h1.024l1.179-1.798-.476.143-1.941-5.025-.738-.119.059-.417 1.369.036 1.25-.036.06.417-.786.119 1.262 3.489.095.822 1.417-4.311-.548-.119.059-.417 1.048.036.988-.036.06.417-.762.119-1.87 4.87-1.333 3.001h-1.416z"/><path id="XMLID_42_" class="st0" d="M65.409 36.082c0 1.774-1.084 2.798-2.929 3.096-1.584 0-2.655-1.226-2.655-2.846 0-1.786 1.084-2.798 2.929-3.108 1.583 0 2.655 1.239 2.655 2.858zm-2.632 2.513c.953 0 1.441-.977 1.441-2.263 0-1.512-.726-2.524-1.762-2.524-.964 0-1.441.977-1.441 2.274 0 1.358.702 2.513 1.762 2.513z"/><path id="XMLID_41_" class="st0" d="M68.16 33.522h1.488v.56H68.16v4.394l1.369.084-.06.453-1.846-.036-1.369.036-.06-.417.834-.119v-4.394H65.98v-.202l.357-.417h.691v-.119c0-.715.226-1.179.655-1.667l1-1.131h1.5v.953h-1.548l-.226.322c-.167.226-.25.572-.25 1.346v.354z"/><path id="XMLID_40_" class="st0" d="M15.298 51.178c0-4.699 3.292-7.904 8.099-7.904 2.036 0 3.768.541 5.327 1.689l-1.191 1.689c-1.278-.909-2.685-1.386-4.201-1.386-3.486 0-5.912 2.404-5.912 5.912s2.425 5.912 5.912 5.912c1.516 0 2.923-.476 4.201-1.386l1.191 1.689c-1.559 1.148-3.292 1.689-5.327 1.689-4.808 0-8.099-3.205-8.099-7.904z"/><path id="XMLID_39_" class="st0" d="M32.816 58.757h-1.949V43.599h1.949v15.158z"/><path id="XMLID_38_" class="st0" d="M45.68 53.192c.52.52.996 1.213 1.191 1.689l.086-.022c-.13-.585-.217-1.473-.217-2.729v-8.532h1.949v15.375h-.173l-9.247-9.81c-.498-.52-.974-1.213-1.191-1.689l-.065.022c.13.585.195 1.473.195 2.707v8.554H36.26V43.382h.195l9.225 9.81z"/><path id="XMLID_37_" class="st0" d="M51.314 51.178c0-4.699 3.292-7.904 8.099-7.904 2.036 0 3.768.541 5.327 1.689l-1.191 1.689c-1.278-.909-2.685-1.386-4.201-1.386-3.486 0-5.912 2.404-5.912 5.912s2.425 5.912 5.912 5.912c1.516 0 2.923-.476 4.201-1.386l1.191 1.689c-1.559 1.148-3.292 1.689-5.327 1.689-4.808 0-8.099-3.205-8.099-7.904z"/><path id="XMLID_36_" class="st0" d="M68.832 58.757h-1.949V43.599h1.949v15.158z"/><path id="XMLID_35_" class="st0" d="M81.696 53.192c.52.52.996 1.213 1.191 1.689l.087-.022c-.13-.585-.217-1.473-.217-2.729v-8.532h1.949v15.375h-.173l-9.247-9.81c-.498-.52-.974-1.213-1.191-1.689l-.065.022c.13.585.195 1.473.195 2.707v8.554h-1.949V43.382h.195l9.225 9.81z"/><path id="XMLID_34_" class="st0" d="M97.616 53.192c.52.52.996 1.213 1.191 1.689l.086-.022c-.13-.585-.217-1.473-.217-2.729v-8.532h1.949v15.375h-.173l-9.247-9.81c-.498-.52-.975-1.213-1.191-1.689l-.065.022c.13.585.195 1.473.195 2.707v8.554h-1.949V43.382h.195l9.226 9.81z"/><path id="XMLID_33_" class="st0" d="M109.62 43.274h.217l7.081 15.483h-2.187l-1.884-4.244h-6.237l-1.884 4.244h-2.187l7.081-15.483zm-1.256 9.571h2.728c.671 0 1.018.022 1.213.043l.022-.022c-.173-.217-.39-.563-.671-1.234l-1.343-3.162c-.303-.78-.498-1.386-.541-1.776h-.087c-.043.39-.238.996-.541 1.776l-1.343 3.162c-.281.671-.498 1.018-.671 1.234l.022.022c.194-.021.541-.043 1.212-.043z"/><path id="XMLID_32_" class="st0" d="M126.491 45.461h-3.876c-.26 0-.412 0-.563-.065l-.022.043c.043.108.065.282.065.52v12.798h-1.949V45.959c0-.238.022-.412.065-.52l-.043-.043c-.151.065-.281.065-.541.065h-3.898v-1.862h10.763v1.862z"/><path id="XMLID_31_" class="st0" d="M130.321 58.757h-1.949V43.599h1.949v15.158z"/><path id="XMLID_14_" class="st1" d="M93.342.929h7.279v2.124h-7.279z"/><path id="XMLID_13_" class="st1" d="M87.964 21.556c0-5.796 3.388-10.483 8.394-13.111V5.596c-7.194 2.356-12.352 8.438-12.352 15.959 0 3.719.969 6.626 2.659 9.229-4.448-.782-6.365-3.885-6.365-9.229V.918h-7.983v2.125h3.815v18.513c0 7.417 4.835 11.27 12.194 11.392 2.814 3.129 6.797 5.312 11.322 5.957.357.053.697.09.979.115v-2.11c-.364-.063-.616-.122-.616-.122-6.934-1.766-12.047-7.667-12.047-15.232z"/><path id="XMLID_12_" class="st1" d="M104.794 21.556V6.621c4.923 0 7.876 2.928 8.035 6.284l1.831.36 1.283-7.471-2.18-.424-.266 1.594c-3.932-1.978-7.232-2.336-10.511-2.336-.804 0-1.596.048-2.374.141l.016 16.787c0 3.265-.472 5.192-2.143 7.247-1.839-2.029-2.129-4.332-2.129-7.247l.003-8.939c-2.44 2.36-3.966 5.292-3.966 8.939 0 7.63 5.892 13.589 13.083 13.589 2.468 0 5.314-.603 7.391-2.016l-.524-.782c-2.803 1.431-8.494 1.764-11.971-1.491 2.939-2.169 4.422-4.946 4.422-9.3z"/></svg>